HIERARCHY
ROOT Hips
{
  OFFSET 10.0579 99.5506 -6.07592
  CHANNELS 6 Xposition Yposition Zposition Zrotation Xrotation Yrotation
  JOINT ToSpine
  {
    OFFSET -0.0105055 1.38907 -7.13956
    CHANNELS 3 Zrotation Xrotation Yrotation
    JOINT Spine
    {
      OFFSET 0.0105055 10 1
      CHANNELS 3 Zrotation Xrotation Yrotation
      JOINT Spine1
      {
        OFFSET 0 12 1.60637
        CHANNELS 3 Zrotation Xrotation Yrotation
        JOINT Neck
        {
          OFFSET 0 27 2.26658
          CHANNELS 3 Zrotation Xrotation Yrotation
          JOINT Head
          {
            OFFSET 0 9 2.12705
            CHANNELS 3 Zrotation Xrotation Yrotation
            End Site
            {
              OFFSET 0 11 2
            }
          }
        }
        JOINT LeftShoulder
        {
          OFFSET 8 19.6109 2.86452
          CHANNELS 3 Zrotation Xrotation Yrotation
          JOINT LeftArm
          {
            OFFSET 12 1 0.681055
            CHANNELS 3 Zrotation Xrotation Yrotation
            JOINT LeftForeArm
            {
              OFFSET 19 0 -1.52608
              CHANNELS 3 Zrotation Xrotation Yrotation
              JOINT LeftHand
              {
                OFFSET 23 0 0
                CHANNELS 3 Zrotation Xrotation Yrotation
                End Site
                {
                  OFFSET 10 0 0
                }
              }
            }
          }
        }
        JOINT RightShoulder
        {
          OFFSET -8 19.6109 2.86452
          CHANNELS 3 Zrotation Xrotation Yrotation
          JOINT RightArm
          {
            OFFSET -12 1 0.681055
            CHANNELS 3 Zrotation Xrotation Yrotation
            JOINT RightForeArm
            {
              OFFSET -19 0 -1.52608
              CHANNELS 3 Zrotation Xrotation Yrotation
              JOINT RightHand
              {
                OFFSET -23 0 0
                CHANNELS 3 Zrotation Xrotation Yrotation
                End Site
                {
                  OFFSET -10 0 0
                }
              }
            }
          }
        }
      }
    }
  }
  JOINT LeftUpLeg
  {
    OFFSET 9 -7.17245 0
    CHANNELS 3 Zrotation Xrotation Yrotation
    JOINT LeftLeg
    {
      OFFSET 0 -44.1113 0
      CHANNELS 3 Zrotation Xrotation Yrotation
      JOINT LeftFoot
      {
        OFFSET 0 -36.1829 0
        CHANNELS 3 Zrotation Xrotation Yrotation
        JOINT LeftToeBase
        {
          OFFSET 0 -4.84184 13
          CHANNELS 3 Zrotation Xrotation Yrotation
          End Site
          {
            OFFSET 0 1 6
          }
        }
      }
    }
  }
  JOINT RightUpLeg
  {
    OFFSET -9 -7.17245 0
    CHANNELS 3 Zrotation Xrotation Yrotation
    JOINT RightLeg
    {
      OFFSET 0 -44.0551 0
      CHANNELS 3 Zrotation Xrotation Yrotation
      JOINT RightFoot
      {
        OFFSET 0 -36.1469 0
        CHANNELS 3 Zrotation Xrotation Yrotation
        JOINT RightToeBase
        {
          OFFSET 0 -4.92256 13
          CHANNELS 3 Zrotation Xrotation Yrotation
          End Site
          {
            OFFSET 0 1 6
          }
        }
      }
    }
  }
}
MOTION
Frames:	8
Frame Time:	0.0333333
-61.0833 108.887 39.076 -6.38856 6.30037 -40.9039 0 0 0 3.98641 8.96443 -3.47538 6.10724 -1.52157 -4.52726 21.5121 -4.06758 0.32714 -2.7175 2.82451 6.6213 -16.8607 3.08193 -9.52207 -32.2366 -11.2955 -29.2611 4.10299 6.66923 -31.7019 -6.0184 0.219743 -4.17826 15.1192 3.61345 12.8406 44.813 11.7491 -6.89919 4.5758 -10.368 10.8614 1.8599 0.0666736 4.10575 4.91145 0.831657 8.83356 -0.742234 14.3188 -5.17745 4.88397 9.18964 -0.392747 5.35123 5.72001 -20.0219 7.88867 -33.9251 0.858131 -8.04439e-007 74.8374 -5.15614 -21.9308 -12.2517 -2.38256 4.31015 -16.2828 -3.90454 
-64.0075 109.432 41.1151 -6.66329 7.66277 -38.5195 0 0 0 2.5146 8.68782 -4.09769 9.86389 -1.45727 -5.81956 21.8398 -3.87729 -0.482126 -2.73207 1.28443 5.94553 -17.1983 3.12168 -9.51818 -32.7798 -16.3078 -33.0699 6.7921 7.98358 -40.6144 -5.49321 0.143784 -2.99643 16.0618 3.85856 13.2833 44.4332 12.1302 -9.60059 4.6368 -10.6296 12.6711 1.73145 0.0685181 4.53199 5.478 0.595949 9.63612 -0.578114 13.7625 -1.80766 -0.886758 6.70068 0.0519129 5.87074 12.0647 -19.7303 9.29615 -36.0874 2.98024 2.46677e-007 68.0884 -1.654 -25.8433 -10.2468 -2.35687 5.00867 -19.0205 -3.21157 
-66.8805 108.837 43.2766 -7.75928 8.70459 -36.3413 0 0 0 2.47959 8.96486 -4.65216 12.2333 -1.27157 -6.73699 23.4141 -4.33297 -1.45428 -3.70588 1.03435 5.56008 -17.1791 3.08821 -9.38917 -34.83 -20.5812 -39.2156 9.36039 8.90112 -46.8119 -3.36017 0.106828 -3.64089 17.6115 4.09043 13.2463 43.8645 11.9905 -11.7045 4.43105 -10.1853 13.9552 1.58271 0.0587697 4.25282 6.27413 0.974737 9.58365 -0.238452 12.9137 -2.67661 2.97494 5.33428 -0.138616 5.72292 10.08 -19.8536 10.6225 -36.5353 4.25645 3.58417e-010 60.1093 0.241305 -24.1131 -9.45262 -2.02335 5.06191 -19.2853 -3.46831 
-69.7458 107.145 45.4849 -8.92029 9.44056 -34.1838 0 0 0 2.56595 9.16469 -5.09239 14.2263 -1.1936 -7.47928 24.1331 -3.22042 -2.56896 -3.9932 -0.296754 4.92843 -18.1695 3.16889 -9.23861 -34.0046 -22.5985 -43.9993 10.964 8.19682 -53.649 -1.76656 0.0658284 -4.26779 18.2288 4.26659 13.5617 44.3272 10.262 -13.5708 4.36136 -10.5985 14.091 1.62612 0.0596445 4.20093 7.02308 1.85299 9.27063 0.310715 11.7463 -4.13126 7.85344 2.80113 -0.192313 5.13052 7.37582 -18.7484 11.213 -36.179 3.96325 -2.91044e-008 51.3709 2.51536 -25.0376 -7.70479 -1.71322 5.32156 -20.7822 -5.199 
-72.9041 104.498 47.7879 -9.12899 9.71202 -32.4382 0 0 0 1.32268 8.81515 -5.30226 15.2663 -1.23231 -7.81621 25.814 -1.88731 -3.84132 -5.12736 -0.865384 4.67192 -17.7333 3.13392 -9.30607 -36.1351 -23.8173 -50.1913 12.1935 7.64385 -58.3855 -1.07306 0.0377994 -4.03479 20.3538 4.8268 14.3671 44.2711 9.16342 -16.0601 4.54922 -11.7178 14.2995 1.35623 0.0445538 3.76295 7.39241 1.63834 9.50602 0.510099 15.0628 -4.88132 8.02253 -0.637822 0.0447273 5.57724 4.33323 -21.3324 10.8944 -36.4796 3.27697 1.18539e-007 43.9808 3.13522 -23.4598 -8.10045 -1.68461 5.22471 -20.1859 -4.49349 
-76.0096 100.47 49.9037 -9.90027 10.0572 -31.758 0 0 0 0.708838 8.6352 -5.11794 16.259 -1.20437 -7.76525 26.5892 0.781048 -4.94252 -5.46865 -2.31282 4.41722 -17.5067 3.20329 -9.69982 -38.7059 -24.1438 -55.252 14.3584 7.53206 -62.8844 -0.566982 0.0181334 -3.66362 21.7857 5.14809 14.6436 45.1021 9.07073 -17.4186 5.05484 -13.1589 13.485 1.32078 0.0509834 4.42097 8.61966 5.34928 10.408 0.949753 17.5538 -4.7842 4.05506 -18.1112 0.646555 5.65764 5.28728 -21.2484 11.7352 -37.6618 2.65817 -2.48307e-007 38.9947 4.99155 -23.1278 -8.64498 -1.77211 5.22235 -20.4102 -5.39549 
-79.515 96.7375 52.3415 -10.6529 9.55874 -31.9058 0 0 0 -0.806946 8.95997 -4.85246 17.0753 -1.11526 -7.61503 25.6646 3.27234 -5.18558 -3.02005 -3.93944 3.87208 -19.6794 3.26145 -8.91057 -39.3769 -22.9906 -59.0699 15.5429 6.67863 -67.3078 -1.69068 0.0572025 -3.87533 24.5305 5.70527 14.9036 44.1394 8.20583 -18.2354 4.07946 -10.128 13.3201 2.98311 0.0948619 3.64192 11.0376 11.8371 13.185 -0.764018 16.2455 -8.62911 9.15312 -29.028 2.37425 5.05164 4.69483 -19.3108 12.5561 -37.3463 0.682313 4.18687e-007 34.0364 8.60524 -23.1742 -7.28826 -1.49629 5.29965 -21.0452 -6.42077 
-83.129 93.7904 55.3922 -9.39504 9.54543 -32.7105 0 0 0 -4.302 7.38038 -4.53897 19.2889 -0.105621 -7.9073 23.6123 2.42295 -4.38963 -0.815533 -2.04379 3.39296 -24.1848 3.51592 -8.01779 -40.8621 -20.3025 -58.5484 17.8531 4.66404 -75.8314 -1.76092 0.0563923 -3.66818 26.9266 5.49348 13.012 42.2341 8.02183 -15.0162 3.33626 -6.39397 10.618 3.75305 0.110766 3.37984 10.405 16.4493 13.6198 -1.21034 14.0044 -8.19751 11.7125 -34.1827 3.6127 4.81879 4.55905 -18.518 12.2993 -37.3876 -2.5285 -2.7649e-008 29.2138 11.1674 -21.0246 -5.20173 -0.965878 5.31405 -21.2947 -7.00416 
